<svg id="Group_65" data-name="Group 65" xmlns="http://www.w3.org/2000/svg" width="24.626" height="24.197" viewBox="0 0 24.626 24.197">
  <g id="Group_64" data-name="Group 64">
    <path id="Path_2363" data-name="Path 2363" d="M216.8,288.062a16.107,16.107,0,0,1-6.583-2.466,23.157,23.157,0,0,1-10.286-12.153,10.271,10.271,0,0,1-.473-2.4,3.153,3.153,0,0,1,1.152-2.8c.577-.509,1.094-1.089,1.668-1.6a1.767,1.767,0,0,1,2.621.01q1.539,1.433,3,2.941a1.668,1.668,0,0,1-.019,2.563,17.145,17.145,0,0,1-1.474,1.436.823.823,0,0,0-.223,1.232,17.171,17.171,0,0,0,6.678,6.479.778.778,0,0,0,1.118-.177c.454-.509.963-.975,1.467-1.44a1.809,1.809,0,0,1,2.752-.017q1.5,1.408,2.941,2.881a1.669,1.669,0,0,1,.119,2.442,15.008,15.008,0,0,1-2.277,2.2A9.325,9.325,0,0,1,216.8,288.062Z" transform="translate(-199.442 -263.865)" fill="#19226d"/>
    <path id="Path_2364" data-name="Path 2364" d="M216.795,276.452l-1.984.325a11.927,11.927,0,0,0-3.521-6.5,12.219,12.219,0,0,0-6.743-3.22l.26-1.9C209.629,265.412,215.716,269.677,216.795,276.452Z" transform="translate(-192.169 -265.157)" fill="#19226d"/>
    <path id="Path_2365" data-name="Path 2365" d="M211.884,273.991l-1.872.3a6.607,6.607,0,0,0-5.565-5.269l.247-1.9C208.162,267.26,211.928,270.856,211.884,273.991Z" transform="translate(-192.311 -262.362)" fill="#19226d"/>
  </g>
</svg>
