<svg xmlns="http://www.w3.org/2000/svg" width="21.448" height="30.562" viewBox="0 0 21.448 30.562">
  <g id="Group_72" data-name="Group 72" transform="translate(0)">
    <path id="Exclusion_1" data-name="Exclusion 1" d="M10.724,30.562c-1.82,0-4.391-2.878-6.877-7.7C1.546,18.4,0,13.523,0,10.723A10.724,10.724,0,0,1,18.307,3.141a10.651,10.651,0,0,1,3.141,7.582c0,2.8-1.546,7.679-3.847,12.141C15.115,27.684,12.544,30.562,10.724,30.562Zm0-24.83a5.251,5.251,0,0,0-5.457,5,5.251,5.251,0,0,0,5.457,5,5.251,5.251,0,0,0,5.457-5A5.251,5.251,0,0,0,10.724,5.732Z" transform="translate(0 0)" fill="#19226d"/>
  </g>
</svg>
