<svg id="Group_154" data-name="Group 154" xmlns="http://www.w3.org/2000/svg" width="41" height="42" viewBox="0 0 41 42">
  <rect id="Rectangle_28" data-name="Rectangle 28" width="41" height="42" rx="6" fill="#ffd54c"/>
  <g id="Group_118" data-name="Group 118" transform="translate(8.203 9.894)">
    <g id="Group_22" data-name="Group 22" transform="translate(0 0)">
      <path id="Path_213" data-name="Path 213" d="M689.24-1864.19q-.329,1.316-.657,2.632-.689,2.772-1.376,5.545a2.239,2.239,0,0,1-1.741,1.791,2.973,2.973,0,0,1-.675.062q-5.84,0-11.68,0a.929.929,0,0,0-.991.589.9.9,0,0,0,.761,1.2c.109.011.219.009.328.009q4.878,0,9.756,0a2.649,2.649,0,0,1,2.593,1.758,2.571,2.571,0,0,1-2.842,3.363,2.56,2.56,0,0,1-2.08-3.222c.011-.044.013-.09.022-.151h-2.97a2.554,2.554,0,0,1-1.3,3.126,2.368,2.368,0,0,1-2.636-.189,2.546,2.546,0,0,1-.974-2.946,2.67,2.67,0,0,1-1.935-1.094,2.5,2.5,0,0,1-.506-1.388,2.676,2.676,0,0,1,1.974-2.721c-.016-.07-.029-.144-.049-.215q-1.674-5.937-3.346-11.875a.259.259,0,0,0-.3-.229q-1.29.016-2.58,0a.787.787,0,0,1-.783-1.054.7.7,0,0,1,.666-.534c1.165-.009,2.33-.012,3.494,0a.94.94,0,0,1,.868.739c.225.763.44,1.53.66,2.295.028.1.059.192.1.317a3.436,3.436,0,0,1,1.965-.335h13.814a2.263,2.263,0,0,1,2.166,1.214,4.96,4.96,0,0,1,.253.7Zm-8.687,1.219c.925,0,1.829,0,2.732-.006.047,0,.122-.082.136-.138.072-.287.128-.578.189-.868.068-.324.133-.649.2-.98h-3.257Zm-4.956-2c.134.607.271,1.2.391,1.792.033.162.09.213.258.211.789-.01,1.578,0,2.367-.005.06,0,.119-.009.182-.014v-1.984Zm-1.331,1.993c-.141-.637-.274-1.254-.417-1.869-.012-.051-.083-.124-.128-.125-.523-.005-1.047-.014-1.569.012a.464.464,0,0,0-.43.56c.115.476.256.947.387,1.422Zm6.286,3.587c.678,0,1.332,0,1.986,0a.17.17,0,0,0,.124-.1c.126-.57.243-1.142.365-1.725h-2.475Zm-1.74-1.838h-2.393l.4,1.825h1.973a1.709,1.709,0,0,0,.018-.171C678.811-1860.118,678.81-1860.662,678.81-1861.227Zm6.354-1.755c.082,0,.136.009.19.009.555,0,1.11,0,1.665-.006a.231.231,0,0,0,.159-.142c.113-.406.217-.814.311-1.225a.5.5,0,0,0-.458-.63c-.475-.018-.952,0-1.445,0Zm-10.113,3.594-.4-1.834h-2.042c.167.592.324,1.162.493,1.729.014.048.11.1.17.1.218.012.437.005.656.005Zm9.746-1.84-.385,1.839c.6,0,1.172,0,1.739-.007.051,0,.128-.1.145-.16.126-.466.24-.935.356-1.4.021-.086.034-.173.052-.268Zm-11.2,3.569c.148.5.274.984.438,1.452a.464.464,0,0,0,.314.271c.477.03.958.013,1.46.013-.123-.55-.239-1.081-.364-1.611a.188.188,0,0,0-.129-.12C674.759-1857.663,674.2-1857.66,673.6-1857.66Zm12.23.026h-1.791l-.364,1.737c.477,0,.913.009,1.349,0a.458.458,0,0,0,.451-.35C685.6-1856.7,685.709-1857.153,685.832-1857.634Zm-5.275,1.721h1.352l.358-1.729h-1.71Zm-3.356-1.732c.126.574.242,1.114.366,1.652a.151.151,0,0,0,.109.092c.365.007.73,0,1.1,0v-1.749Zm-1.978,8.712a.839.839,0,0,0,.851-.841.851.851,0,0,0-.848-.851.86.86,0,0,0-.844.835A.848.848,0,0,0,675.223-1848.934Zm7.9,0a.85.85,0,0,0,.851-.847.865.865,0,0,0-.859-.846.848.848,0,0,0-.833.841A.839.839,0,0,0,683.12-1848.933Z" transform="translate(-665.215 1869.734)" fill="#19226d"/>
    </g>
  </g>
</svg>
