<svg width="20" height="29" viewBox="0 0 20 29" fill="none" xmlns="http://www.w3.org/2000/svg">
<path d="M19.813 23.9198L18.7303 8.25432C18.6628 7.24506 17.9194 6.45443 17.0378 6.45443H14.8991V6.34406C14.8991 3.37686 12.7966 0.962891 10.2123 0.962891C7.62803 0.962891 5.52557 3.37686 5.52557 6.34406V6.45443H3.38689C2.50527 6.45443 1.76183 7.24501 1.69458 8.2522L0.611463 23.922C0.527643 25.1766 0.906726 26.4257 1.65144 27.3488C2.39616 28.272 3.45186 28.8015 4.54782 28.8015H15.8768C16.9727 28.8015 18.0284 28.272 18.7732 27.3488C19.5179 26.4256 19.897 25.1766 19.813 23.9198ZM6.94577 6.34406C6.94577 4.27601 8.41119 2.59351 10.2123 2.59351C12.0135 2.59351 13.4789 4.27606 13.4789 6.34406V6.45443H6.94577V6.34406ZM17.7312 26.2408C17.2474 26.8405 16.5888 27.1709 15.8768 27.1709H4.54786C3.83582 27.1709 3.17729 26.8405 2.69341 26.2408C2.20958 25.641 1.97308 24.8618 2.02745 24.0488L3.11047 8.37899C3.12146 8.21414 3.24288 8.08506 3.38689 8.08506H5.52557V10.0933C5.52557 10.5436 5.84352 10.9086 6.23567 10.9086C6.62782 10.9086 6.94577 10.5436 6.94577 10.0933V8.08506H13.4789V10.0933C13.4789 10.5436 13.7968 10.9086 14.189 10.9086C14.5811 10.9086 14.8991 10.5436 14.8991 10.0933V8.08506H17.0378C17.1818 8.08506 17.3032 8.21419 17.3144 8.38117L18.3972 24.0466C18.4516 24.8618 18.2151 25.641 17.7312 26.2408Z" fill="#1F1970"/>
</svg>
