<svg xmlns="http://www.w3.org/2000/svg" width="44" height="45" viewBox="0 0 44 45">
  <g id="Group_120" data-name="Group 120" transform="translate(-0.07)">
    <rect id="Rectangle_28" data-name="Rectangle 28" width="44" height="45" rx="22" transform="translate(0.07)" fill="#19226d"/>
    <g id="Group_118" data-name="Group 118" transform="translate(8.64 10.368)">
      <g id="Group_22" data-name="Group 22" transform="translate(0 0)">
        <path id="Path_213" data-name="Path 213" d="M691.381-1863.7q-.358,1.433-.716,2.867-.75,3.019-1.5,6.039a2.438,2.438,0,0,1-1.9,1.951,3.241,3.241,0,0,1-.735.067q-6.36.005-12.721,0a1.012,1.012,0,0,0-1.079.641.984.984,0,0,0,.829,1.309c.118.012.238.009.357.009q5.313,0,10.626,0a2.885,2.885,0,0,1,2.824,1.914,2.8,2.8,0,0,1-3.1,3.663,2.788,2.788,0,0,1-2.265-3.51c.012-.048.014-.1.023-.165H678.8a2.781,2.781,0,0,1-1.413,3.405,2.579,2.579,0,0,1-2.871-.206,2.773,2.773,0,0,1-1.061-3.208,2.909,2.909,0,0,1-2.107-1.192,2.728,2.728,0,0,1-.551-1.511,2.915,2.915,0,0,1,2.15-2.964c-.017-.076-.031-.156-.053-.234q-1.823-6.467-3.645-12.934a.282.282,0,0,0-.328-.25q-1.4.018-2.81,0a.857.857,0,0,1-.852-1.148.764.764,0,0,1,.725-.581c1.269-.009,2.537-.013,3.806,0a1.024,1.024,0,0,1,.946.8c.246.831.479,1.666.718,2.5.03.1.064.209.105.345a3.742,3.742,0,0,1,2.141-.365h15.045a2.464,2.464,0,0,1,2.359,1.323,5.4,5.4,0,0,1,.276.758Zm-9.462,1.327c1.008,0,1.992,0,2.976-.007.051,0,.133-.089.148-.15.078-.313.14-.629.205-.945.073-.353.145-.707.219-1.068h-3.548Zm-5.4-2.176c.146.661.3,1.3.426,1.952.036.176.1.232.281.23.859-.011,1.719,0,2.578-.006.065,0,.13-.01.2-.016v-2.161Zm-1.45,2.171c-.153-.693-.3-1.366-.454-2.035-.013-.055-.091-.135-.139-.136-.57-.005-1.14-.016-1.709.013a.506.506,0,0,0-.469.609c.125.519.279,1.031.422,1.549Zm6.846,3.906c.738,0,1.451,0,2.163-.005a.185.185,0,0,0,.135-.113c.137-.621.265-1.244.4-1.879h-2.7Zm-1.9-2h-2.607l.438,1.988H680a1.853,1.853,0,0,0,.02-.186C680.023-1859.26,680.022-1859.854,680.022-1860.469Zm6.92-1.911c.089,0,.148.01.207.01.6,0,1.209,0,1.813-.007a.251.251,0,0,0,.173-.155c.123-.442.237-.887.339-1.334a.539.539,0,0,0-.5-.686c-.518-.02-1.037-.005-1.573-.005Zm-11.015,3.914-.44-2h-2.223c.182.645.353,1.266.537,1.883.016.052.12.106.185.109.238.013.476.006.714.006Zm10.615-2-.419,2c.657,0,1.276,0,1.894-.008.055,0,.139-.1.158-.175.137-.507.262-1.018.388-1.528.023-.093.037-.189.057-.292Zm-12.193,3.887c.161.547.3,1.071.477,1.581a.506.506,0,0,0,.342.3c.52.033,1.043.014,1.59.014-.134-.6-.26-1.178-.4-1.754a.2.2,0,0,0-.141-.13C675.61-1856.587,675-1856.584,674.349-1856.584Zm13.32.028h-1.95l-.4,1.892c.519,0,.994.01,1.469,0a.5.5,0,0,0,.491-.381C687.418-1855.537,687.536-1856.031,687.67-1856.555Zm-5.745,1.874H683.4l.39-1.883h-1.862Zm-3.655-1.886c.137.625.264,1.213.4,1.8a.164.164,0,0,0,.118.1c.4.008.795,0,1.2,0v-1.9Zm-2.155,9.488a.913.913,0,0,0,.927-.916.927.927,0,0,0-.923-.927.937.937,0,0,0-.919.91A.924.924,0,0,0,676.115-1847.08Zm8.6,0a.926.926,0,0,0,.926-.923.941.941,0,0,0-.935-.921.924.924,0,0,0-.907.916A.914.914,0,0,0,684.716-1847.079Z" transform="translate(-665.215 1869.734)" fill="#fff"/>
      </g>
    </g>
  </g>
</svg>
