<svg xmlns="http://www.w3.org/2000/svg" xmlns:xlink="http://www.w3.org/1999/xlink" version="1.1" style="" xml:space="preserve" width="490" height="490"><rect id="backgroundrect" width="100%" height="100%" x="0" y="0" fill="none" stroke="none"/>
















<g class="currentLayer" style=""><title>Layer 1</title><g id="svg_1" class="selected" fill="#08185a" fill-opacity="1">
	<path d="M490,244.95c0,12.6-10.2,22.9-22.9,22.9H180.6c-12.6,0-22.9-10.2-22.9-22.9c0-12.6,10.2-22.9,22.9-22.9h286.5   C479.8,222.05,490,232.35,490,244.95z M55.4,189.55c-30.6,0-55.4,24.8-55.4,55.4s24.8,55.4,55.4,55.4s55.4-24.8,55.4-55.4   S86,189.55,55.4,189.55z M467.1,53.95H180.6c-12.6,0-22.9,10.2-22.9,22.9c0,12.6,10.2,22.9,22.9,22.9h286.5   c12.6,0,22.9-10.2,22.9-22.9S479.8,53.95,467.1,53.95z M55.4,21.45C24.8,21.45,0,46.25,0,76.85s24.8,55.4,55.4,55.4   s55.4-24.8,55.4-55.4S86,21.45,55.4,21.45z M467.1,390.25H180.6c-12.6,0-22.9,10.2-22.9,22.9c0,12.6,10.2,22.9,22.9,22.9h286.5   c12.6,0,22.9-10.2,22.9-22.9S479.8,390.25,467.1,390.25z M55.4,357.75c-30.6,0-55.4,24.8-55.4,55.4s24.8,55.4,55.4,55.4   s55.4-24.8,55.4-55.4C110.8,382.45,86,357.75,55.4,357.75z" id="svg_2" fill="#08185a" fill-opacity="1"/>
</g><g id="svg_3">
</g><g id="svg_4">
</g><g id="svg_5">
</g><g id="svg_6">
</g><g id="svg_7">
</g><g id="svg_8">
</g><g id="svg_9">
</g><g id="svg_10">
</g><g id="svg_11">
</g><g id="svg_12">
</g><g id="svg_13">
</g><g id="svg_14">
</g><g id="svg_15">
</g><g id="svg_16">
</g><g id="svg_17">
</g></g></svg>