<svg xmlns="http://www.w3.org/2000/svg" width="26.301" height="25.832" viewBox="0 0 26.301 25.832">
  <g id="Group_68" data-name="Group 68" transform="translate(0 0)">
    <g id="Group_67" data-name="Group 67">
      <path id="Path_2366" data-name="Path 2366" d="M311.8,274.82H298.361a21.976,21.976,0,0,1,.93-6.113c.6.1,1.184.2,1.77.282a28.651,28.651,0,0,0,9.4-.219c.456-.085.379-.17.516.307a22.206,22.206,0,0,1,.823,5.485Z" transform="translate(-291.931 -262.342)" fill="#19226d"/>
      <path id="Path_2367" data-name="Path 2367" d="M311.843,271.513c-.092.992-.137,1.962-.284,2.917-.155.982-.409,1.95-.613,2.925-.042.2-.122.269-.347.227a27.348,27.348,0,0,0-7.569-.456c-1.144.092-2.279.289-3.418.441-.1.012-.194.032-.282.047a20.032,20.032,0,0,1-.952-6.1Z" transform="translate(-291.929 -258.145)" fill="#19226d"/>
      <path id="Path_2368" data-name="Path 2368" d="M309.864,271.683a28.217,28.217,0,0,1-11.02,0c.167-.4.309-.775.481-1.139a9.555,9.555,0,0,1,2.381-3.331,3.78,3.78,0,0,1,4.346-.638,5.437,5.437,0,0,1,1.518,1.169A11.568,11.568,0,0,1,309.864,271.683Z" transform="translate(-291.21 -266.152)" fill="#19226d"/>
      <path id="Path_2369" data-name="Path 2369" d="M309.856,274.614a11.435,11.435,0,0,1-1.591,3.072,8.69,8.69,0,0,1-1.294,1.411,3.829,3.829,0,0,1-5.4-.12,10.251,10.251,0,0,1-2.5-3.79c-.075-.177-.14-.359-.222-.571A28.3,28.3,0,0,1,309.856,274.614Z" transform="translate(-291.204 -254.32)" fill="#19226d"/>
      <path id="Path_2370" data-name="Path 2370" d="M301.335,275.6h-5.552c.02-.282.027-.569.057-.853a12.725,12.725,0,0,1,2.531-6.413.306.306,0,0,1,.416-.127c1.092.354,2.192.686,3.289,1.025l.217.07A23.494,23.494,0,0,0,301.335,275.6Z" transform="translate(-295.782 -263.13)" fill="#19226d"/>
      <path id="Path_2371" data-name="Path 2371" d="M303.72,269.3c.381-.1.741-.18,1.09-.292.82-.259,1.638-.531,2.453-.808a.25.25,0,0,1,.339.09,12.659,12.659,0,0,1,2.573,6.615c.02.227.035.454.055.706-.122.008-.209.015-.3.015-1.656,0-3.311-.005-4.969,0-.234,0-.3-.057-.307-.292a22.723,22.723,0,0,0-.883-5.824C303.757,269.457,303.745,269.4,303.72,269.3Z" transform="translate(-283.928 -263.136)" fill="#19226d"/>
      <path id="Path_2372" data-name="Path 2372" d="M310.2,271.505a12.667,12.667,0,0,1-.382,2.715,12.932,12.932,0,0,1-2.182,4.545.34.34,0,0,1-.461.145c-1.057-.346-2.119-.673-3.186-.99-.224-.067-.3-.125-.224-.374a21.965,21.965,0,0,0,.868-5.715c0-.277.092-.334.354-.332,1.628.012,3.256,0,4.887,0Z" transform="translate(-283.905 -258.165)" fill="#19226d"/>
      <path id="Path_2373" data-name="Path 2373" d="M301.33,271.51a23.419,23.419,0,0,0,.96,6.3c-.3.08-.573.137-.838.222-.9.284-1.8.571-2.688.873a.281.281,0,0,1-.382-.1,12.7,12.7,0,0,1-2.511-6.171c-.042-.332-.06-.668-.087-1a.689.689,0,0,1,.017-.12Z" transform="translate(-295.778 -258.15)" fill="#19226d"/>
      <path id="Path_2374" data-name="Path 2374" d="M305.441,271.231a12.267,12.267,0,0,0-3.062-4.9,12.959,12.959,0,0,1,6.5,3.862A26.042,26.042,0,0,1,305.441,271.231Z" transform="translate(-285.931 -265.889)" fill="#19226d"/>
      <path id="Path_2375" data-name="Path 2375" d="M297.127,270.194a13.209,13.209,0,0,1,6.47-3.877l.062.07c-.17.147-.347.287-.5.449a12.07,12.07,0,0,0-2.508,4.191c-.055.14-.092.237-.279.18-1.03-.317-2.059-.626-3.089-.94A1.209,1.209,0,0,1,297.127,270.194Z" transform="translate(-293.774 -265.904)" fill="#19226d"/>
      <path id="Path_2376" data-name="Path 2376" d="M300.57,274.352a12.212,12.212,0,0,0,3.109,4.959,13.092,13.092,0,0,1-6.57-3.909Z" transform="translate(-293.8 -253.906)" fill="#19226d"/>
      <path id="Path_2377" data-name="Path 2377" d="M302.377,279.3a12.367,12.367,0,0,0,3.084-4.944l3.458,1.045A12.976,12.976,0,0,1,302.377,279.3Z" transform="translate(-285.934 -253.905)" fill="#19226d"/>
    </g>
  </g>
</svg>
