<svg xmlns="http://www.w3.org/2000/svg" xmlns:xlink="http://www.w3.org/1999/xlink" version="1.1" width="97" height="95" style="" xml:space="preserve"><rect id="backgroundrect" width="100%" height="100%" x="0" y="0" fill="none" stroke="none"/>
















<g class="currentLayer" style=""><title>Layer 1</title><g id="svg_1" class="selected" fill-opacity="1" fill="#08185a">
	<g id="svg_2" fill="#08185a" fill-opacity="1">
		<path d="M61.168,83.92H11.364V13.025H61.17c1.104,0,2-0.896,2-2V3.66c0-1.104-0.896-2-2-2H2c-1.104,0-2,0.896-2,2v89.623    c0,1.104,0.896,2,2,2h59.168c1.105,0,2-0.896,2-2V85.92C63.168,84.814,62.274,83.92,61.168,83.92z" id="svg_3" fill="#08185a" fill-opacity="1"/>
		<path d="M96.355,47.058l-26.922-26.92c-0.75-0.751-2.078-0.75-2.828,0l-6.387,6.388c-0.781,0.781-0.781,2.047,0,2.828    l12.16,12.162H19.737c-1.104,0-2,0.896-2,2v9.912c0,1.104,0.896,2,2,2h52.644L60.221,67.59c-0.781,0.781-0.781,2.047,0,2.828    l6.387,6.389c0.375,0.375,0.885,0.586,1.414,0.586c0.531,0,1.039-0.211,1.414-0.586l26.922-26.92    c0.375-0.375,0.586-0.885,0.586-1.414C96.943,47.941,96.73,47.433,96.355,47.058z" id="svg_4" fill="#08185a" fill-opacity="1"/>
	</g>
</g><g id="svg_5" class="" fill="#ffffff" fill-opacity="1">
</g><g id="svg_6" class="" fill="#ffffff" fill-opacity="1">
</g><g id="svg_7" class="" fill="#ffffff" fill-opacity="1">
</g><g id="svg_8" class="" fill="#ffffff" fill-opacity="1">
</g><g id="svg_9" class="" fill="#ffffff" fill-opacity="1">
</g><g id="svg_10" class="" fill="#ffffff" fill-opacity="1">
</g><g id="svg_11" class="" fill="#ffffff" fill-opacity="1">
</g><g id="svg_12" class="" fill="#ffffff" fill-opacity="1">
</g><g id="svg_13" class="" fill="#ffffff" fill-opacity="1">
</g><g id="svg_14" class="" fill="#ffffff" fill-opacity="1">
</g><g id="svg_15" class="" fill="#ffffff" fill-opacity="1">
</g><g id="svg_16" class="" fill="#ffffff" fill-opacity="1">
</g><g id="svg_17" class="" fill="#ffffff" fill-opacity="1">
</g><g id="svg_18" class="" fill="#ffffff" fill-opacity="1">
</g><g id="svg_19" class="" fill="#ffffff" fill-opacity="1">
</g></g></svg>