<svg xmlns="http://www.w3.org/2000/svg" width="16" height="16" fill="currentColor" style=""><rect id="backgroundrect" width="100%" height="100%" x="0" y="0" fill="none" stroke="none"/>
  
  
<g class="currentLayer" style=""><title>Layer 1</title><path fill-rule="evenodd" d="M10.854 8.146a.5.5 0 0 1 0 .708l-3 3a.5.5 0 0 1-.708 0l-1.5-1.5a.5.5 0 0 1 .708-.708L7.5 10.793l2.646-2.647a.5.5 0 0 1 .708 0z" id="svg_1" class="" fill-opacity="1" fill="#08185a"/><path d="M8 1a2.5 2.5 0 0 1 2.5 2.5V4h-5v-.5A2.5 2.5 0 0 1 8 1zm3.5 3v-.5a3.5 3.5 0 1 0-7 0V4H1v10a2 2 0 0 0 2 2h10a2 2 0 0 0 2-2V4h-3.5zM2 5h12v9a1 1 0 0 1-1 1H3a1 1 0 0 1-1-1V5z" id="svg_2" class=""/><path d="M8,1 a2.5,2.5 0 0 1 2.5,2.5 V4 h-5 v-0.5 A2.5,2.5 0 0 1 8,1 zm3.5,3 v-0.5 a3.5,3.5 0 1 0 -7,0 V4 H1 v10 a2,2 0 0 0 2,2 h10 a2,2 0 0 0 2,-2 V4 h-3.5 zM2,5 h12 v9 a1,1 0 0 1 -1,1 H3 a1,1 0 0 1 -1,-1 V5 z" class="" id="svg_3" fill-opacity="1" fill="#08185a"/></g></svg>