<svg xmlns="http://www.w3.org/2000/svg" width="27.68" height="28.772" viewBox="0 0 27.68 28.772">
  <path id="zoom" d="M1309.049,73.3l-.75.76a2.1,2.1,0,0,1-3,0l-4.94-5.007a2.141,2.141,0,0,1-.3-2.583l-1.165-1.181a10.448,10.448,0,0,1-6.3,2.121,10.709,10.709,0,1,1,7.875-3.568l1.094,1.109a2.07,2.07,0,0,1,2.548.3l4.94,5.007A2.17,2.17,0,0,1,1309.049,73.3Zm-8.527-16.681a8.006,8.006,0,0,0-7.952-8.059,7.786,7.786,0,0,0-3.4.8c.553.576,1.388,1.437,1.432,1.437-.861,0-3.682,2.859-3.682,3.8,0-.045-.9-.909-1.485-1.469a7.97,7.97,0,1,0,15.09,3.489Z" transform="translate(-1281.99 -45.921)" fill="#18216c"/>
</svg>
