<svg xmlns="http://www.w3.org/2000/svg" xmlns:xlink="http://www.w3.org/1999/xlink" version="1.1" style="" xml:space="preserve" width="330" height="330"><rect id="backgroundrect" width="100%" height="100%" x="0" y="0" fill="none" stroke="none"/>
















<g class="currentLayer" style=""><title>Layer 1</title><path id="XMLID_788_" d="M265,79.974h-45V55c0-30.328-24.673-55-55-55s-55,24.673-55,55v24.974H65c-8.284,0-15,6.716-15,15V315  c0,8.284,6.716,15,15,15h200c8.284,0,15-6.716,15-15V94.974C280,86.69,273.284,79.974,265,79.974z M140,55c0-13.785,11.215-25,25-25  s25,11.215,25,25v24.974h-50V55z M250,300H80V109.974h30v25c0,8.284,6.716,15,15,15s15-6.716,15-15v-25h50v25  c0,8.284,6.716,15,15,15s15-6.716,15-15v-25h30V300z" class="selected" fill-opacity="1" fill="#08185a"/><g id="svg_1">
</g><g id="svg_2">
</g><g id="svg_3">
</g><g id="svg_4">
</g><g id="svg_5">
</g><g id="svg_6">
</g><g id="svg_7">
</g><g id="svg_8">
</g><g id="svg_9">
</g><g id="svg_10">
</g><g id="svg_11">
</g><g id="svg_12">
</g><g id="svg_13">
</g><g id="svg_14">
</g><g id="svg_15">
</g></g></svg>