<svg id="Group_155" data-name="Group 155" xmlns="http://www.w3.org/2000/svg" width="41" height="42" viewBox="0 0 41 42">
  <g id="Rectangle_28" data-name="Rectangle 28" fill="none" stroke="#fff" stroke-width="1">
    <rect width="41" height="42" rx="6" stroke="none"/>
    <rect x="0.5" y="0.5" width="40" height="41" rx="5.5" fill="none"/>
  </g>
  <g id="Group_156" data-name="Group 156" transform="translate(9.688 11.553)">
    <path id="Path_2712" data-name="Path 2712" d="M1308.374-458.33a5.956,5.956,0,0,1,1.494-1.269,5.714,5.714,0,0,1,3.075-.768,5.72,5.72,0,0,1,3.136.977,6.915,6.915,0,0,1,2.772,3.77,6.025,6.025,0,0,1,.275,2.614,6.352,6.352,0,0,1-.864,2.341,18.111,18.111,0,0,1-2.99,3.77,46.621,46.621,0,0,1-6.277,5.2,1.047,1.047,0,0,1-1.275,0,49.711,49.711,0,0,1-5.243-4.2,23.869,23.869,0,0,1-3.405-3.785,9.126,9.126,0,0,1-1.31-2.543,5.612,5.612,0,0,1,.133-3.478,6.831,6.831,0,0,1,3.036-3.869,5.738,5.738,0,0,1,2.948-.8,5.549,5.549,0,0,1,3.671,1.261C1307.841-458.87,1308.1-458.592,1308.374-458.33Zm-.01,14.615a39.884,39.884,0,0,0,6.725-5.964,11.843,11.843,0,0,0,1.526-2.143,3.613,3.613,0,0,0,.527-2.039,5.413,5.413,0,0,0-.4-1.651,4.886,4.886,0,0,0-1.643-2.125,3.758,3.758,0,0,0-2.362-.714,3.664,3.664,0,0,0-2.355.869,4.241,4.241,0,0,0-1.1,1.486.962.962,0,0,1-.554.528,1.007,1.007,0,0,1-1.294-.552,3.92,3.92,0,0,0-1.853-1.961,3.729,3.729,0,0,0-1.6-.37,3.738,3.738,0,0,0-2.414.762,5.132,5.132,0,0,0-1.873,2.979,3.389,3.389,0,0,0,.286,2.521,14.844,14.844,0,0,0,.981,1.561,21.541,21.541,0,0,0,2.6,2.86A44.381,44.381,0,0,0,1308.364-443.715Z" transform="translate(-1297.545 460.369)" fill="#fff"/>
  </g>
</svg>
