<svg width="12" height="10" viewBox="0 0 12 10" fill="none" xmlns="http://www.w3.org/2000/svg">
<path d="M10.9016 1.9816C10.741 1.60913 10.5094 1.27159 10.2197 0.987894C9.92991 0.70335 9.58819 0.477227 9.21317 0.321821C8.82429 0.160035 8.4072 0.0772238 7.9861 0.0781945C7.39534 0.0781945 6.81895 0.240212 6.31806 0.546246C6.19823 0.619454 6.0844 0.699862 5.97655 0.787472C5.8687 0.699862 5.75486 0.619454 5.63503 0.546246C5.13414 0.240212 4.55776 0.0781945 3.96699 0.0781945C3.5416 0.0781945 3.12938 0.159803 2.73993 0.321821C2.36366 0.477838 2.02454 0.702263 1.73336 0.987894C1.44336 1.27127 1.21171 1.60889 1.05152 1.9816C0.884957 2.36924 0.799877 2.78089 0.799877 3.20454C0.799877 3.60418 0.881362 4.02062 1.04313 4.44427C1.17854 4.79831 1.37267 5.16555 1.62072 5.53639C2.01376 6.12325 2.55419 6.73532 3.22524 7.35579C4.33727 8.3843 5.43851 9.09478 5.48524 9.12358L5.76924 9.306C5.89506 9.38641 6.05683 9.38641 6.18266 9.306L6.46665 9.12358C6.51339 9.09358 7.61343 8.3843 8.72665 7.35579C9.3977 6.73532 9.93814 6.12325 10.3312 5.53639C10.5792 5.16555 10.7746 4.79831 10.9088 4.44427C11.0705 4.02062 11.152 3.60418 11.152 3.20454C11.1532 2.78089 11.0681 2.36924 10.9016 1.9816ZM5.97655 8.3567C5.97655 8.3567 1.71059 5.6192 1.71059 3.20454C1.71059 1.9816 2.72076 0.990294 3.96699 0.990294C4.49577 0.990294 4.98219 1.16872 5.36695 1.4675C5.68586 1.71515 6.26723 1.71515 6.58615 1.4675C6.97091 1.16872 7.45733 0.990294 7.9861 0.990294C9.23234 0.990294 10.2425 1.9816 10.2425 3.20454C10.2425 5.6192 5.97655 8.3567 5.97655 8.3567Z" fill="#0E1D58"/>
</svg>
